<?xml version="1.0" encoding="UTF-8" standalone="no"?>
<!-- Created with Inkscape (http://www.inkscape.org/) -->

<svg
   xmlns:dc="http://purl.org/dc/elements/1.1/"
   xmlns:cc="http://creativecommons.org/ns#"
   xmlns:rdf="http://www.w3.org/1999/02/22-rdf-syntax-ns#"
   xmlns:svg="http://www.w3.org/2000/svg"
   xmlns="http://www.w3.org/2000/svg"
   xmlns:sodipodi="http://sodipodi.sourceforge.net/DTD/sodipodi-0.dtd"
   xmlns:inkscape="http://www.inkscape.org/namespaces/inkscape"
   width="50"
   height="50"
   viewBox="0 0 13.229166 13.229167"
   version="1.1"
   id="svg8"
   inkscape:version="0.92.4 (5da689c313, 2019-01-14)"
   sodipodi:docname="s_contact_open_Horiz.svg">
  <defs
     id="defs2" />
  <sodipodi:namedview
     id="base"
     pagecolor="#ffffff"
     bordercolor="#666666"
     borderopacity="1.0"
     inkscape:pageopacity="0.0"
     inkscape:pageshadow="2"
     inkscape:zoom="11.313708"
     inkscape:cx="4.0302562"
     inkscape:cy="22.786669"
     inkscape:document-units="mm"
     inkscape:current-layer="layer1"
     showgrid="true"
     units="px"
     inkscape:measure-start="0.0128466,25.2009"
     inkscape:measure-end="0.0883859,50.1162"
     inkscape:window-width="1920"
     inkscape:window-height="1017"
     inkscape:window-x="-8"
     inkscape:window-y="-8"
     inkscape:window-maximized="1"
     showguides="false"
     inkscape:lockguides="false"
     inkscape:snap-to-guides="false">
    <inkscape:grid
       type="xygrid"
       id="grid871" />
  </sodipodi:namedview>
  <metadata
     id="metadata5">
    <rdf:RDF>
      <cc:Work
         rdf:about="">
        <dc:format>image/svg+xml</dc:format>
        <dc:type
           rdf:resource="http://purl.org/dc/dcmitype/StillImage" />
        <dc:title></dc:title>
      </cc:Work>
    </rdf:RDF>
  </metadata>
  <g
     inkscape:label="Layer 1"
     inkscape:groupmode="layer"
     id="layer1"
     transform="translate(0,-283.77082)">
    <path
       style="fill:none;stroke:#000000;stroke-width:1.05833328;stroke-linecap:butt;stroke-linejoin:miter;stroke-miterlimit:4;stroke-dasharray:none;stroke-opacity:1"
       d="m 0.01987,290.42615 h 1.85209 l 0.52916,0"
       id="path4592"
       inkscape:connector-curvature="0" />
    <ellipse
       style="opacity:1;fill:#ffffff;fill-opacity:1;stroke:#000000;stroke-width:1.10000002;stroke-linecap:butt;stroke-linejoin:round;stroke-miterlimit:4;stroke-dasharray:none;stroke-opacity:1;paint-order:stroke fill markers"
       id="path24"
       cx="3.7518241"
       cy="-290.40897"
       rx="1.2160764"
       ry="1.1576113"
       transform="scale(1,-1)" />
    <path
       style="fill:none;stroke:#000000;stroke-width:1.05833328;stroke-linecap:butt;stroke-linejoin:miter;stroke-miterlimit:4;stroke-dasharray:none;stroke-opacity:1"
       d="m 11.39696,290.45817 h 1.85208"
       id="path4594"
       inkscape:connector-curvature="0" />
    <path
       style="opacity:1;fill:#000000;fill-opacity:1;stroke:#000000;stroke-width:0.09722719;stroke-linecap:round;stroke-linejoin:round;stroke-miterlimit:4;stroke-dasharray:none;stroke-opacity:1;paint-order:stroke fill markers"
       d="m 7.1700066,288.12769 c -1.8322124,0.8945 -2.2223462,1.0913 -2.2990972,1.15933 -0.3527527,0.31323 -0.2628979,0.90651 0.1661043,1.09663 0.064212,0.0284 0.1734781,0.0566 0.2428434,0.0626 l 0.1260926,0.0108 0.7727948,-0.36255 c 0.4249037,-0.19967 1.6524523,-0.79166 2.7273632,-1.31661 1.9171793,-0.93586 1.9559693,-0.95583 2.0295993,-1.04387 0.376385,-0.45028 0.09233,-1.09403 -0.492601,-1.11648 -0.134228,-0.005 -0.13882,-0.003 -0.6008428,0.21379 -0.2561906,0.12018 -1.4587061,0.70354 -2.672277,1.29628 z"
       id="path855"
       inkscape:connector-curvature="0" />
    <path
       style="opacity:1;fill:#000000;fill-opacity:1;stroke:#000000;stroke-width:0.097;stroke-linecap:round;stroke-linejoin:round;stroke-miterlimit:4;stroke-dasharray:none;stroke-opacity:1;paint-order:stroke fill markers"
       d="m 8.5742803,287.5149 -0.1076156,-0.0399 0.2583923,-0.73191 c 0.1421115,-0.40256 0.263373,-0.7343 0.2694817,-0.73721 0.00632,-0.003 0.3122947,0.12698 0.6804317,0.28863 l 0.6693376,0.29395 -0.04762,0.10887 c -0.04291,0.0981 -0.05256,0.10734 -0.09777,0.0939 -0.0751,-0.0224 -1.460453,0.63942 -1.4771861,0.70566 -0.015602,0.0618 -0.026047,0.0631 -0.1474721,0.018 z"
       id="path857"
       inkscape:connector-curvature="0" />
  </g>
</svg>
